<svg width="12" height="14" viewBox="0 0 12 14" fill="none" xmlns="http://www.w3.org/2000/svg">
<g clip-path="url(#clip0_2_3522)">
<path d="M5.41568 0.893163L5.41497 0.893869L0.897533 5.4113C0.546274 5.76569 0.548815 6.33774 0.903208 6.689C0.931216 6.71675 0.961003 6.74265 0.992399 6.76653C1.3702 7.01982 1.87545 6.96454 2.18952 6.63553L4.69218 4.1419C4.82488 4.00934 4.93615 3.85694 5.02196 3.69016L5.16651 3.41459L5.16652 12.2913C5.1474 12.7459 5.45823 13.1482 5.90286 13.2445C6.3954 13.3244 6.85945 12.9899 6.93933 12.4973C6.94771 12.4456 6.95158 12.3933 6.9509 12.341V3.43266L7.04125 3.62691C7.12977 3.81645 7.25052 3.98915 7.39813 4.13738L9.89627 6.63553C10.2103 6.96454 10.7156 7.01982 11.0934 6.76653C11.496 6.47175 11.5834 5.90641 11.2886 5.50379C11.2648 5.47127 11.2388 5.44035 11.2109 5.4113L6.69341 0.893869C6.34077 0.540858 5.76872 0.540548 5.41568 0.893163Z" fill="#fff"/>
</g>
<defs>
<clipPath id="clip0_2_3522">
<rect width="11" height="13" fill="white" transform="translate(0.5 0.589844)"/>
</clipPath>
</defs>
</svg>
